<svg width="10" height="10" viewBox="0 0 10 10" fill="none" xmlns="http://www.w3.org/2000/svg">
<path d="M0.286384 7.14286H6.14219C6.1798 7.14289 6.21706 7.1355 6.25182 7.12112C6.28658 7.10674 6.31816 7.08564 6.34476 7.05904C6.37136 7.03244 6.39245 7.00086 6.40683 6.9661C6.42121 6.93134 6.4286 6.89409 6.42857 6.85647V6.00067C6.4286 5.96305 6.42121 5.9258 6.40683 5.89104C6.39245 5.85628 6.37136 5.8247 6.34476 5.7981C6.31816 5.7715 6.28658 5.75041 6.25182 5.73603C6.21706 5.72164 6.1798 5.71426 6.14219 5.71429H0.286384C0.248767 5.71426 0.211514 5.72164 0.176755 5.73603C0.141996 5.75041 0.110414 5.7715 0.0838145 5.7981C0.0572155 5.8247 0.0361217 5.85628 0.02174 5.89104C0.00735824 5.9258 -2.92665e-05 5.96305 8.7133e-08 6.00067V6.85647C-2.92665e-05 6.89409 0.00735824 6.93134 0.02174 6.9661C0.0361217 7.00086 0.0572155 7.03244 0.0838145 7.05904C0.110414 7.08564 0.141996 7.10674 0.176755 7.12112C0.211514 7.1355 0.248767 7.14289 0.286384 7.14286ZM0.286384 1.42857H6.14219C6.1798 1.4286 6.21706 1.42121 6.25182 1.40683C6.28658 1.39245 6.31816 1.37136 6.34476 1.34476C6.37136 1.31816 6.39245 1.28658 6.40683 1.25182C6.42121 1.21706 6.4286 1.1798 6.42857 1.14219V0.286384C6.4286 0.248767 6.42121 0.211514 6.40683 0.176755C6.39245 0.141996 6.37136 0.110414 6.34476 0.0838145C6.31816 0.0572155 6.28658 0.0361217 6.25182 0.0217399C6.21706 0.0073582 6.1798 -2.92665e-05 6.14219 8.71334e-08H0.286384C0.248767 -2.92665e-05 0.211514 0.0073582 0.176755 0.0217399C0.141996 0.0361217 0.110414 0.0572155 0.0838145 0.0838145C0.0572155 0.110414 0.0361217 0.141996 0.02174 0.176755C0.00735824 0.211514 -2.92665e-05 0.248767 8.7133e-08 0.286384V1.14219C-2.92665e-05 1.1798 0.00735824 1.21706 0.02174 1.25182C0.0361217 1.28658 0.0572155 1.31816 0.0838145 1.34476C0.110414 1.37136 0.141996 1.39245 0.176755 1.40683C0.211514 1.42121 0.248767 1.4286 0.286384 1.42857ZM9.64286 2.85714H0.357143C0.262423 2.85714 0.171582 2.89477 0.104605 2.96175C0.0376275 3.02872 8.7133e-08 3.11957 8.7133e-08 3.21429V3.92857C8.7133e-08 4.02329 0.0376275 4.11413 0.104605 4.18111C0.171582 4.24809 0.262423 4.28571 0.357143 4.28571H9.64286C9.73758 4.28571 9.82842 4.24809 9.8954 4.18111C9.96237 4.11413 10 4.02329 10 3.92857V3.21429C10 3.11957 9.96237 3.02872 9.8954 2.96175C9.82842 2.89477 9.73758 2.85714 9.64286 2.85714ZM9.64286 8.57143H0.357143C0.262423 8.57143 0.171582 8.60906 0.104605 8.67603C0.0376275 8.74301 8.7133e-08 8.83385 8.7133e-08 8.92857V9.64286C8.7133e-08 9.73758 0.0376275 9.82842 0.104605 9.8954C0.171582 9.96237 0.262423 10 0.357143 10H9.64286C9.73758 10 9.82842 9.96237 9.8954 9.8954C9.96237 9.82842 10 9.73758 10 9.64286V8.92857C10 8.83385 9.96237 8.74301 9.8954 8.67603C9.82842 8.60906 9.73758 8.57143 9.64286 8.57143Z" fill="black"/>
</svg>
