<svg width="10" height="10" viewBox="0 0 10 10" fill="none" xmlns="http://www.w3.org/2000/svg">
<path d="M9.64286 2.85714H0.357143C0.262423 2.85714 0.171582 2.89477 0.104605 2.96175C0.0376275 3.02872 0 3.11957 0 3.21429L0 3.92857C0 4.02329 0.0376275 4.11413 0.104605 4.18111C0.171582 4.24809 0.262423 4.28571 0.357143 4.28571H9.64286C9.73758 4.28571 9.82842 4.24809 9.8954 4.18111C9.96237 4.11413 10 4.02329 10 3.92857V3.21429C10 3.11957 9.96237 3.02872 9.8954 2.96175C9.82842 2.89477 9.73758 2.85714 9.64286 2.85714ZM9.64286 8.57143H0.357143C0.262423 8.57143 0.171582 8.60906 0.104605 8.67603C0.0376275 8.74301 0 8.83385 0 8.92857L0 9.64286C0 9.73758 0.0376275 9.82842 0.104605 9.8954C0.171582 9.96237 0.262423 10 0.357143 10H9.64286C9.73758 10 9.82842 9.96237 9.8954 9.8954C9.96237 9.82842 10 9.73758 10 9.64286V8.92857C10 8.83385 9.96237 8.74301 9.8954 8.67603C9.82842 8.60906 9.73758 8.57143 9.64286 8.57143ZM2.41295 1.42857H7.58728C7.62274 1.42857 7.65785 1.42158 7.6906 1.40801C7.72336 1.39443 7.75312 1.37453 7.77818 1.34945C7.80324 1.32437 7.82312 1.29459 7.83667 1.26182C7.85021 1.22906 7.85717 1.19394 7.85714 1.15848V0.269866C7.85714 0.234427 7.85016 0.199335 7.8366 0.166593C7.82304 0.133851 7.80316 0.104101 7.7781 0.0790421C7.75304 0.0539827 7.72329 0.0341044 7.69055 0.0205424C7.65781 0.00698037 7.62272 9.23225e-08 7.58728 9.23225e-08H2.41295C2.37749 -2.92361e-05 2.34237 0.00692938 2.3096 0.0204783C2.27684 0.0340272 2.24706 0.0539007 2.22198 0.078963C2.1969 0.104025 2.177 0.133785 2.16342 0.166541C2.14984 0.199298 2.14286 0.234408 2.14286 0.269866V1.15848C2.14286 1.23011 2.17131 1.29881 2.22196 1.34946C2.27262 1.40012 2.34131 1.42857 2.41295 1.42857ZM7.58728 7.14286C7.62274 7.14286 7.65785 7.13587 7.6906 7.12229C7.72336 7.10872 7.75312 7.08882 7.77818 7.06374C7.80324 7.03865 7.82312 7.00888 7.83667 6.97611C7.85021 6.94334 7.85717 6.90823 7.85714 6.87277V5.98415C7.85714 5.91258 7.82871 5.84394 7.7781 5.79333C7.72749 5.74272 7.65885 5.71429 7.58728 5.71429H2.41295C2.37749 5.71426 2.34237 5.72122 2.3096 5.73476C2.27684 5.74831 2.24706 5.76819 2.22198 5.79325C2.1969 5.81831 2.177 5.84807 2.16342 5.88083C2.14984 5.91358 2.14286 5.94869 2.14286 5.98415V6.87277C2.14286 6.90824 2.14984 6.94336 2.16342 6.97613C2.17699 7.00889 2.19688 7.03867 2.22196 7.06375C2.24704 7.08883 2.27682 7.10873 2.30959 7.1223C2.34236 7.13587 2.37748 7.14286 2.41295 7.14286H7.58728Z" fill="black"/>
</svg>
