<svg width="10" height="10" viewBox="0 0 10 10" fill="none" xmlns="http://www.w3.org/2000/svg">
<path d="M9.64286 8.57143H0.357143C0.262423 8.57143 0.171582 8.60906 0.104605 8.67603C0.0376275 8.74301 0 8.83385 0 8.92857L0 9.64286C0 9.73758 0.0376275 9.82842 0.104605 9.8954C0.171582 9.96237 0.262423 10 0.357143 10H9.64286C9.73758 10 9.82842 9.96237 9.8954 9.8954C9.96237 9.82842 10 9.73758 10 9.64286V8.92857C10 8.83385 9.96237 8.74301 9.8954 8.67603C9.82842 8.60906 9.73758 8.57143 9.64286 8.57143ZM9.64286 5.71429H0.357143C0.262423 5.71429 0.171582 5.75191 0.104605 5.81889C0.0376275 5.88587 0 5.97671 0 6.07143L0 6.78571C0 6.88043 0.0376275 6.97128 0.104605 7.03825C0.171582 7.10523 0.262423 7.14286 0.357143 7.14286H9.64286C9.73758 7.14286 9.82842 7.10523 9.8954 7.03825C9.96237 6.97128 10 6.88043 10 6.78571V6.07143C10 5.97671 9.96237 5.88587 9.8954 5.81889C9.82842 5.75191 9.73758 5.71429 9.64286 5.71429ZM9.64286 2.85714H0.357143C0.262423 2.85714 0.171582 2.89477 0.104605 2.96175C0.0376275 3.02872 0 3.11957 0 3.21429L0 3.92857C0 4.02329 0.0376275 4.11413 0.104605 4.18111C0.171582 4.24809 0.262423 4.28571 0.357143 4.28571H9.64286C9.73758 4.28571 9.82842 4.24809 9.8954 4.18111C9.96237 4.11413 10 4.02329 10 3.92857V3.21429C10 3.11957 9.96237 3.02872 9.8954 2.96175C9.82842 2.89477 9.73758 2.85714 9.64286 2.85714ZM9.64286 0H0.357143C0.262423 0 0.171582 0.0376274 0.104605 0.104605C0.0376275 0.171582 0 0.262423 0 0.357143L0 1.07143C0 1.16615 0.0376275 1.25699 0.104605 1.32397C0.171582 1.39094 0.262423 1.42857 0.357143 1.42857H9.64286C9.73758 1.42857 9.82842 1.39094 9.8954 1.32397C9.96237 1.25699 10 1.16615 10 1.07143V0.357143C10 0.262423 9.96237 0.171582 9.8954 0.104605C9.82842 0.0376274 9.73758 0 9.64286 0Z" fill="black"/>
</svg>
