<svg width="10" height="10" viewBox="0 0 10 10" fill="none" xmlns="http://www.w3.org/2000/svg">
<path d="M0.357143 4.28571H9.64286C9.73758 4.28571 9.82842 4.24809 9.8954 4.18111C9.96237 4.11413 10 4.02329 10 3.92857V3.21429C10 3.11957 9.96237 3.02872 9.8954 2.96175C9.82842 2.89477 9.73758 2.85714 9.64286 2.85714H0.357143C0.262423 2.85714 0.171582 2.89477 0.104605 2.96175C0.0376275 3.02872 0 3.11957 0 3.21429L0 3.92857C0 4.02329 0.0376275 4.11413 0.104605 4.18111C0.171582 4.24809 0.262423 4.28571 0.357143 4.28571ZM9.64286 8.57143H0.357143C0.262423 8.57143 0.171582 8.60906 0.104605 8.67603C0.0376275 8.74301 0 8.83385 0 8.92857L0 9.64286C0 9.73758 0.0376275 9.82842 0.104605 9.8954C0.171582 9.96237 0.262423 10 0.357143 10H9.64286C9.73758 10 9.82842 9.96237 9.8954 9.8954C9.96237 9.82842 10 9.73758 10 9.64286V8.92857C10 8.83385 9.96237 8.74301 9.8954 8.67603C9.82842 8.60906 9.73758 8.57143 9.64286 8.57143ZM9.71362 8.71334e-08H3.85781C3.8202 -2.92665e-05 3.78294 0.0073582 3.74818 0.0217399C3.71342 0.0361217 3.68184 0.0572155 3.65524 0.0838145C3.62864 0.110414 3.60755 0.141996 3.59317 0.176755C3.57879 0.211514 3.5714 0.248767 3.57143 0.286384V1.14219C3.5714 1.1798 3.57879 1.21706 3.59317 1.25182C3.60755 1.28658 3.62864 1.31816 3.65524 1.34476C3.68184 1.37136 3.71342 1.39245 3.74818 1.40683C3.78294 1.42121 3.8202 1.4286 3.85781 1.42857H9.71362C9.75123 1.4286 9.78849 1.42121 9.82325 1.40683C9.858 1.39245 9.88959 1.37136 9.91619 1.34476C9.94279 1.31816 9.96388 1.28658 9.97826 1.25182C9.99264 1.21706 10 1.1798 10 1.14219V0.286384C10 0.248767 9.99264 0.211514 9.97826 0.176755C9.96388 0.141996 9.94279 0.110414 9.91619 0.0838145C9.88959 0.0572155 9.858 0.0361217 9.82325 0.0217399C9.78849 0.0073582 9.75123 -2.92665e-05 9.71362 8.71334e-08ZM9.71362 5.71429H3.85781C3.8202 5.71426 3.78294 5.72164 3.74818 5.73603C3.71342 5.75041 3.68184 5.7715 3.65524 5.7981C3.62864 5.8247 3.60755 5.85628 3.59317 5.89104C3.57879 5.9258 3.5714 5.96305 3.57143 6.00067V6.85647C3.5714 6.89409 3.57879 6.93134 3.59317 6.9661C3.60755 7.00086 3.62864 7.03244 3.65524 7.05904C3.68184 7.08564 3.71342 7.10674 3.74818 7.12112C3.78294 7.1355 3.8202 7.14289 3.85781 7.14286H9.71362C9.75123 7.14289 9.78849 7.1355 9.82325 7.12112C9.858 7.10674 9.88959 7.08564 9.91619 7.05904C9.94279 7.03244 9.96388 7.00086 9.97826 6.9661C9.99264 6.93134 10 6.89409 10 6.85647V6.00067C10 5.96305 9.99264 5.9258 9.97826 5.89104C9.96388 5.85628 9.94279 5.8247 9.91619 5.7981C9.88959 5.7715 9.858 5.75041 9.82325 5.73603C9.78849 5.72164 9.75123 5.71426 9.71362 5.71429Z" fill="black"/>
</svg>
