<svg width="7" height="12" viewBox="0 0 7 12" fill="none" xmlns="http://www.w3.org/2000/svg">
<path d="M5.068 0.199999H6.566V11.82H5.068V0.199999ZM2.492 5.884C2.184 5.884 1.89933 5.80933 1.638 5.66C1.37667 5.50133 1.148 5.29133 0.952 5.03C0.765333 4.75933 0.620667 4.456 0.518 4.12C0.415333 3.77467 0.364 3.41067 0.364 3.028C0.364 2.65467 0.424667 2.3 0.546 1.964C0.667333 1.61867 0.84 1.31533 1.064 1.054C1.288 0.792666 1.55867 0.587333 1.876 0.438C2.19333 0.279333 2.548 0.199999 2.94 0.199999H3.976V11.82H2.492V5.884Z" fill="black"/>
</svg>
