<svg width="18" height="14" viewBox="0 0 18 14" fill="none" xmlns="http://www.w3.org/2000/svg">
<path d="M4.06236 2.28152H11.5332L10.9072 0.951552C10.774 0.667751 10.8714 0.343237 11.1465 0.151487C11.4218 -0.0401378 11.8093 -0.0507663 12.099 0.12417L17.1576 3.1779C17.3792 3.31166 17.5079 3.53396 17.4996 3.76822C17.4913 4.00233 17.3472 4.21717 17.1166 4.33878L11.827 7.13027C11.526 7.28898 11.1411 7.25747 10.8801 7.05261C10.6186 6.84777 10.543 6.51459 10.6935 6.23831L11.3887 4.96002H4.06236C3.52172 4.96002 3.08193 5.34961 3.08193 5.81944V10.4765C3.08193 10.9463 3.52172 11.3215 4.06236 11.3215H12.1703C12.8935 11.3215 13.4799 11.831 13.4799 12.4596V12.8618C13.4799 13.4904 12.8935 14 12.1703 14H4.06236C1.82237 14 5.26225e-10 12.4234 5.26225e-10 10.4765V5.81947C-3.57581e-05 3.87255 1.82237 2.28152 4.06236 2.28152Z" fill="white"/>
</svg>
