<svg width="14" height="14" viewBox="0 0 14 14" fill="none" xmlns="http://www.w3.org/2000/svg">
<path d="M12.6566 3.06066L10.2101 0.439344C9.9475 0.158039 9.59141 2.08024e-06 9.22011 0H1.4C0.626792 0 0 0.671562 0 1.5V12.5C0 13.3284 0.626792 14 1.4 14H11.6667C12.4399 14 13.0667 13.3284 13.0667 12.5V4.12131C13.0667 3.72349 12.9192 3.34196 12.6566 3.06066ZM6.53333 12C5.50241 12 4.66667 11.1046 4.66667 10C4.66667 8.89544 5.50241 8 6.53333 8C7.56426 8 8.4 8.89544 8.4 10C8.4 11.1046 7.56426 12 6.53333 12ZM9.33333 2.48375V5.625C9.33333 5.83209 9.17662 6 8.98333 6H2.21667C2.02338 6 1.86667 5.83209 1.86667 5.625V2.375C1.86667 2.16791 2.02338 2 2.21667 2H8.88183C8.97467 2 9.06369 2.0395 9.12931 2.10984L9.23081 2.21859C9.26332 2.25341 9.2891 2.29475 9.30669 2.34024C9.32429 2.38574 9.33334 2.4345 9.33333 2.48375Z" fill="white"/>
</svg>
