<svg width="12" height="10" viewBox="0 0 12 10" fill="none" xmlns="http://www.w3.org/2000/svg">
<path d="M9.99995 6.25C9.99995 6.25 8.74995 8.05957 8.74995 8.75C8.74995 9.44043 9.30972 10 9.99995 10C10.6902 10 11.25 9.44043 11.25 8.75C11.25 8.05957 9.99995 6.25 9.99995 6.25ZM9.81694 4.23945L5.7605 0.183008C5.63843 0.0609375 5.47847 0 5.31851 0C5.15855 0 4.99858 0.0609375 4.87671 0.183008L3.28335 1.77637L1.60015 0.0929688C1.47808 -0.0291016 1.28022 -0.0291016 1.15835 0.0929688L0.716553 0.534766C0.594678 0.656836 0.594678 0.854688 0.716553 0.976562L2.39995 2.65977L0.54917 4.51055C-0.183057 5.24258 -0.183057 6.42969 0.54917 7.16191L2.83804 9.45078C3.20405 9.8168 3.68394 10 4.16362 10C4.64351 10 5.12319 9.81699 5.48921 9.45078L9.81675 5.12324C10.0609 4.8791 10.0609 4.48359 9.81694 4.23945ZM7.54702 5.62559H1.28765C1.31421 5.55059 1.35737 5.46973 1.43276 5.39453L1.6896 5.1377L3.28354 3.54375L4.42808 4.68828C4.67202 4.93223 5.06772 4.93223 5.31167 4.68828C5.55561 4.44434 5.55561 4.04863 5.31167 3.80469L4.16714 2.66016L5.31851 1.50879L8.49116 4.68145L7.54702 5.62559Z" fill="black"/>
</svg>
