<svg width="18" height="14" viewBox="0 0 18 14" fill="none" xmlns="http://www.w3.org/2000/svg">
<path d="M13.9376 2.28152H6.46681L7.0928 0.951552C7.226 0.667751 7.12856 0.343237 6.85354 0.151487C6.57823 -0.0401378 6.19068 -0.0507663 5.90096 0.12417L0.842371 3.1779C0.620775 3.31166 0.492115 3.53396 0.500376 3.76822C0.508671 4.00233 0.652779 4.21717 0.883387 4.33878L6.17302 7.13027C6.47396 7.28898 6.85887 7.25747 7.1199 7.05261C7.38137 6.84777 7.457 6.51459 7.30653 6.23831L6.61127 4.96002H13.9376C14.4783 4.96002 14.9181 5.34961 14.9181 5.81944V10.4765C14.9181 10.9463 14.4783 11.3215 13.9376 11.3215H5.8297C5.10648 11.3215 4.52011 11.831 4.52011 12.4596V12.8618C4.52011 13.4904 5.10648 14 5.8297 14H13.9376C16.1776 14 18 12.4234 18 10.4765V5.81947C18 3.87255 16.1776 2.28152 13.9376 2.28152Z" fill="white"/>
</svg>
